<?xml version="1.0" encoding="UTF-8" standalone="no"?>
<!DOCTYPE svg PUBLIC "-//W3C//DTD SVG 1.1//EN" "http://www.w3.org/Graphics/SVG/1.1/DTD/svg11.dtd">
<svg width="100%" height="100%" viewBox="0 0 575 163" version="1.1" xmlns="http://www.w3.org/2000/svg" xmlns:xlink="http://www.w3.org/1999/xlink" xml:space="preserve" xmlns:serif="http://www.serif.com/" style="fill-rule:evenodd;clip-rule:evenodd;stroke-linejoin:round;stroke-miterlimit:2;">
    <rect id="logo" x="0" y="0" width="574.063" height="162.569" style="fill:none;"/>
    <clipPath id="_clip1">
        <rect id="logo1" serif:id="logo" x="0" y="0" width="574.063" height="162.569"/>
    </clipPath>
    <g clip-path="url(#_clip1)">
        <g transform="matrix(1.13114,0,0,1.13114,114.484,77.4255)">
            <path d="M0,-56.518C-7.942,-66.356 -31.773,-68.449 -47.644,-68.449C-63.522,-68.449 -87.323,-66.356 -95.259,-56.518C-103.195,-46.68 -103.195,-9.838 -95.259,-0C-87.323,9.838 -63.522,11.931 -47.644,11.931C-31.773,11.931 -7.942,9.838 0,-0C7.942,-9.838 7.942,-46.68 0,-56.518" style="fill:rgb(107,70,193);"/>
        </g>
        <g transform="matrix(1.13114,0,0,1.13114,99.4951,157.038)">
            <path d="M0,-52.116L0,-10.679C0,-9.575 0.896,-8.679 2,-8.679L7.041,-8.679C8.146,-8.679 9.042,-7.783 9.042,-6.678L9.042,0.175C9.042,1.28 8.146,2.176 7.041,2.176L-19.71,2.176C-20.815,2.176 -21.711,1.28 -21.711,0.175L-21.711,-6.678C-21.711,-7.783 -20.815,-8.679 -19.71,-8.679L-14.67,-8.679C-13.565,-8.679 -12.669,-9.575 -12.669,-10.679L-12.669,-50.912C-12.669,-51.933 -11.9,-52.783 -10.885,-52.897C-8.014,-53.219 -5.153,-53.611 -2.35,-54.084C-1.122,-54.292 0,-53.361 0,-52.116" style="fill:white;fill-rule:nonzero;"/>
        </g>
        <g transform="matrix(1.13114,0,0,1.13114,24.3285,159.296)">
            <path d="M0,-55.631C2.827,-55.212 5.695,-54.87 8.551,-54.595C9.578,-54.496 10.361,-53.641 10.361,-52.61L10.361,-12.675C10.361,-11.57 11.257,-10.675 12.361,-10.675L17.41,-10.675C18.515,-10.675 19.411,-9.779 19.411,-8.674L19.411,-1.82C19.411,-0.716 18.515,0.18 17.41,0.18L-9.341,0.18C-10.446,0.18 -11.342,-0.716 -11.342,-1.82L-11.342,-8.674C-11.342,-9.779 -10.446,-10.675 -9.341,-10.675L-4.301,-10.675C-3.196,-10.675 -2.3,-11.57 -2.3,-12.675L-2.3,-53.66C-2.3,-54.886 -1.213,-55.811 0,-55.631" style="fill:white;fill-rule:nonzero;"/>
        </g>
        <g transform="matrix(1.13114,0,0,1.13114,144.076,26.4779)">
            <path d="M0,117.599L-8.687,117.599C-9.786,117.599 -10.676,116.709 -10.676,115.61L-10.676,1.989C-10.676,0.89 -9.786,0 -8.687,0L0,0C1.098,0 1.989,0.89 1.989,1.989L1.989,45.596C1.989,46.853 3.632,47.327 4.302,46.264L32.884,0.928C33.248,0.351 33.883,0 34.566,0L43.971,0C45.538,0 46.489,1.727 45.652,3.051L16.163,49.7C15.788,50.294 15.754,51.042 16.073,51.667L48.274,114.706C48.95,116.029 47.989,117.599 46.503,117.599L37.041,117.599C36.292,117.599 35.607,117.179 35.268,116.511L8.956,64.742C8.518,63.88 7.307,63.828 6.795,64.649L2.289,71.886C2.093,72.201 1.989,72.566 1.989,72.937L1.989,115.61C1.989,116.709 1.098,117.599 0,117.599" style="fill:white;fill-rule:nonzero;"/>
        </g>
        <g transform="matrix(1.13114,0,0,1.13114,267.784,52.0585)">
            <path d="M0,72.369C0,89.195 -10.132,97.698 -30.576,97.698C-51.02,97.698 -61.152,89.195 -61.152,72.369L-61.152,58.999C-61.152,57.89 -60.252,56.991 -59.143,56.991L-50.495,56.991C-49.386,56.991 -48.487,57.89 -48.487,58.999L-48.487,73.093C-48.487,77.435 -47.04,80.872 -43.964,83.224C-40.888,85.576 -36.546,86.843 -30.576,86.843C-24.605,86.843 -20.263,85.576 -17.188,83.224C-14.112,80.872 -12.665,77.435 -12.665,73.274C-12.665,69.363 -13.014,65.976 -13.884,63.456C-13.916,63.365 -13.95,63.282 -13.991,63.195C-15.082,60.873 -16.875,58.208 -19.54,55.543L-51.382,24.425C-55.181,20.626 -57.714,17.007 -58.98,13.389C-60.428,9.951 -61.152,5.428 -61.152,-0C-61.152,-8.141 -58.619,-14.292 -53.553,-18.815C-48.668,-23.157 -41.069,-25.329 -30.938,-25.329C-11.579,-25.329 -1.809,-16.825 -1.809,-0L-1.809,13.37C-1.809,14.48 -2.708,15.379 -3.818,15.379L-12.465,15.379C-13.575,15.379 -14.474,14.48 -14.474,13.37L-14.474,-0.723C-14.474,-5.065 -15.921,-8.503 -18.635,-10.855C-21.53,-13.207 -25.872,-14.473 -31.48,-14.473C-37.089,-14.473 -41.431,-13.207 -44.145,-10.855C-47.04,-8.503 -48.487,-5.065 -48.487,-0.904C-48.487,3.257 -48.125,6.695 -47.221,9.047C-46.316,11.399 -44.507,13.931 -41.612,16.645L-9.287,47.706C-9.247,47.744 -9.208,47.785 -9.17,47.826C-5.762,51.605 -3.25,55.381 -1.99,58.8C-0.724,62.418 0,66.941 0,72.369" style="fill:white;fill-rule:nonzero;"/>
        </g>
        <g transform="matrix(1.13114,0,0,1.13114,287.528,26.4779)">
            <path d="M0,117.599L-8.67,117.599C-9.773,117.599 -10.667,116.705 -10.667,115.602L-10.667,1.997C-10.667,0.894 -9.773,0 -8.67,0L0,0C1.103,0 1.997,0.894 1.997,1.997L1.997,50.47C1.997,51.573 2.891,52.467 3.994,52.467L35.642,52.467C36.745,52.467 37.639,51.573 37.639,50.47L37.639,1.997C37.639,0.894 38.533,0 39.636,0L48.306,0C49.409,0 50.303,0.894 50.303,1.997L50.303,115.602C50.303,116.705 49.409,117.599 48.306,117.599L39.636,117.599C38.533,117.599 37.639,116.705 37.639,115.602L37.639,65.32C37.639,64.217 36.745,63.323 35.642,63.323L3.994,63.323C2.891,63.323 1.997,64.217 1.997,65.32L1.997,115.602C1.997,116.705 1.103,117.599 0,117.599" style="fill:white;fill-rule:nonzero;"/>
        </g>
        <g transform="matrix(1.13114,0,0,1.13114,406.469,86.6274)">
            <path d="M0,11.247C0,10.14 -0.898,9.242 -2.005,9.242L-20.987,9.242C-26.053,9.242 -29.49,10.509 -31.48,13.042C-33.47,15.574 -34.375,19.193 -34.375,23.716L-34.375,41.808C-34.375,46.331 -33.47,49.949 -31.48,52.482C-29.49,55.015 -26.053,56.282 -20.987,56.282C-15.921,56.282 -11.217,54.292 -6.875,50.311C-2.533,46.512 -0.181,42.532 0,38.732L0,11.247ZM10.66,64.423L8.586,64.423C7.771,64.423 7.036,63.929 6.729,63.173L3.961,56.359C3.373,54.913 1.437,54.669 0.503,55.92C-1.678,58.842 -4.293,61.255 -7.418,63.157C-11.579,65.871 -16.102,67.137 -20.987,67.137C-38.355,67.137 -47.04,58.634 -47.04,41.808L-47.04,23.716C-47.04,6.89 -38.355,-1.613 -20.987,-1.613L-2.005,-1.613C-0.898,-1.613 0,-2.511 0,-3.618L0,-31.284C0,-35.626 -1.447,-39.064 -4.161,-41.416C-6.875,-43.768 -11.036,-45.034 -16.464,-45.034C-27.138,-45.034 -32.566,-40.511 -32.566,-31.284L-32.566,-22.615C-32.566,-21.507 -33.464,-20.61 -34.571,-20.61L-43.226,-20.61C-44.333,-20.61 -45.23,-21.507 -45.23,-22.615L-45.23,-30.561C-45.23,-38.702 -42.878,-44.853 -37.994,-49.376C-33.29,-53.718 -26.053,-55.89 -16.464,-55.89C-6.875,-55.89 0.543,-53.718 5.428,-49.376C10.313,-44.853 12.665,-38.702 12.665,-30.561L12.665,62.418C12.665,63.526 11.767,64.423 10.66,64.423" style="fill:white;fill-rule:nonzero;"/>
        </g>
        <g transform="matrix(1.13114,0,0,1.13114,442.079,23.408)">
            <path d="M0,120.313L-8.665,120.313C-9.769,120.313 -10.665,119.418 -10.665,118.313L-10.665,4.714C-10.665,3.61 -9.769,2.714 -8.665,2.714L-6.61,2.714C-5.783,2.714 -5.041,3.224 -4.744,3.996L-2.096,10.881C-1.532,12.347 0.431,12.622 1.365,11.359C6.933,3.829 14.219,0 23.349,0C41.079,0 49.944,8.504 49.944,25.329L49.944,118.313C49.944,119.418 49.049,120.313 47.944,120.313L39.28,120.313C38.175,120.313 37.28,119.418 37.28,118.313L37.28,25.329C37.28,20.806 36.375,17.188 34.385,14.655C32.395,12.122 28.595,10.856 23.349,10.856C18.102,10.856 13.217,12.846 8.694,17.007C4.171,21.168 2,25.148 2,28.948L2,118.313C2,119.418 1.105,120.313 0,120.313" style="fill:white;fill-rule:nonzero;"/>
        </g>
        <g transform="matrix(1.13114,0,0,1.13114,559.739,86.629)">
            <path d="M0,11.244C0,10.138 -0.897,9.241 -2.003,9.241L-20.987,9.241C-26.053,9.241 -29.49,10.507 -31.48,13.04C-33.471,15.573 -34.375,19.191 -34.375,23.714L-34.375,41.807C-34.375,46.33 -33.471,49.948 -31.48,52.481C-29.49,55.014 -26.053,56.28 -20.987,56.28C-15.921,56.28 -11.217,54.29 -6.875,50.31C-2.533,46.51 -0.181,42.53 0,38.731L0,11.244ZM10.661,64.422L8.585,64.422C7.77,64.422 7.036,63.928 6.729,63.172L3.96,56.355C3.373,54.91 1.437,54.666 0.505,55.916C-1.677,58.84 -4.292,61.253 -7.418,63.155C-11.579,65.869 -16.102,67.135 -20.987,67.135C-38.355,67.135 -47.04,58.632 -47.04,41.807L-47.04,23.714C-47.04,6.889 -38.355,-1.615 -20.987,-1.615L-2.003,-1.615C-0.897,-1.615 0,-2.512 0,-3.618L0,-31.286C0,-35.628 -1.447,-39.065 -4.161,-41.417C-6.875,-43.769 -11.036,-45.036 -16.464,-45.036C-27.138,-45.036 -32.566,-40.513 -32.566,-31.286L-32.566,-22.615C-32.566,-21.508 -33.463,-20.611 -34.569,-20.611L-43.227,-20.611C-44.334,-20.611 -45.23,-21.508 -45.23,-22.615L-45.23,-30.562C-45.23,-38.703 -42.878,-44.855 -37.994,-49.378C-33.29,-53.72 -26.053,-55.891 -16.464,-55.891C-6.875,-55.891 0.543,-53.72 5.428,-49.378C10.313,-44.855 12.664,-38.703 12.664,-30.562L12.664,62.418C12.664,63.525 11.768,64.422 10.661,64.422" style="fill:white;fill-rule:nonzero;"/>
        </g>
        <g transform="matrix(-1.13114,0,0,1.13114,33.2932,45.4609)">
            <path d="M0,-16.782C-4.394,-16.782 -7.955,-13.025 -7.955,-8.391C-7.955,-3.757 -4.394,0 0,0C4.394,0 7.955,-3.757 7.955,-8.391C7.955,-13.025 4.394,-16.782 0,-16.782" style="fill:white;"/>
        </g>
        <g transform="matrix(-1.13114,0,0,1.13114,87.9192,45.4609)">
            <path d="M0,-16.782C-4.394,-16.782 -7.955,-13.025 -7.955,-8.391C-7.955,-3.757 -4.394,0 0,0C4.394,0 7.955,-3.757 7.955,-8.391C7.955,-13.025 4.394,-16.782 0,-16.782" style="fill:white;"/>
        </g>
    </g>
</svg>
